<svg width="359" height="452" viewBox="0 0 359 452" fill="none" xmlns="http://www.w3.org/2000/svg">
<path d="M320.77 326.25C281.56 351.93 237.8 383 198.82 409C191.69 413.76 185.95 414.42 177.99 411C137.62 393.5 88.4799 374.67 47.8999 357.66C31.9999 351 22.1399 314.84 33.4099 301.34C35.2999 299.07 42.0599 298.8 45.4999 300.21C91.4399 319.21 137.3 338.32 182.9 358.06C191.68 361.86 198 361.86 206.26 356.29C247.47 328.49 303.68 292.92 345.26 265.63L302.65 251.42C263.79 276.78 240.32 289.8 201.1 314.6C196.19 317.7 187.48 318.74 182.16 316.6C140.83 300.14 88.5299 282.7 47.4999 265.51C31.4999 258.8 21.8799 221.06 33.8599 209.05C36.3199 206.59 44.3699 207.66 48.8599 209.54C86.7699 225.59 132.24 242.88 170.59 256.1C184.73 260.98 191.9 262.77 206.75 253.1C250.44 224.78 288.97 202.41 332.54 173.89C336.79 171.1 340.8 167.89 347.39 163.16C293.28 140.16 242.39 118.38 191.39 97.16C187.39 95.49 180.94 96.35 176.86 98.43C127 124 73.6299 145.88 24.4499 172.38C17.6599 176.04 11.3199 183.68 8.44992 190.94C-1.12008 215.28 -2.83008 240.32 4.78992 266C7.10235 274.415 7.17474 283.288 4.99992 291.74C-1.36008 315.83 -2.63008 339.61 7.27992 362.66C10.2799 369.74 16.6499 377.53 23.4399 380.54C77.5199 404.54 131.917 427.787 186.63 450.28C191.63 452.34 200.21 451.28 204.71 447.97C249.19 414.81 318.91 363.97 358.48 335.67L320.77 326.25Z" fill="#023527"/>
<path d="M274.53 92.3601L204.87 111C204.573 111.079 204.302 111.236 204.087 111.456C203.872 111.677 203.721 111.951 203.65 112.25L186.75 182.36C186.655 182.727 186.441 183.051 186.141 183.283C185.842 183.514 185.474 183.64 185.095 183.64C184.717 183.64 184.349 183.514 184.049 183.283C183.75 183.051 183.535 182.727 183.44 182.36L164.76 112.7C164.677 112.405 164.518 112.137 164.298 111.923C164.079 111.709 163.807 111.556 163.51 111.48L93.3901 94.6601C93.0237 94.5648 92.6992 94.3506 92.4676 94.0511C92.236 93.7516 92.1104 93.3837 92.1104 93.0051C92.1104 92.6264 92.236 92.2585 92.4676 91.959C92.6992 91.6595 93.0237 91.4453 93.3901 91.3501L163 72.6701C163.297 72.5896 163.566 72.4313 163.781 72.2115C163.995 71.9916 164.147 71.7184 164.22 71.4201L181.12 1.31007C181.215 0.943626 181.43 0.619158 181.729 0.387545C182.029 0.155932 182.397 0.0302734 182.775 0.0302734C183.154 0.0302734 183.522 0.155932 183.821 0.387545C184.121 0.619158 184.335 0.943626 184.43 1.31007L203.11 70.9601C203.187 71.2585 203.344 71.5301 203.564 71.7453C203.785 71.9605 204.06 72.1109 204.36 72.1801L274.48 89.0001C274.873 89.0683 275.229 89.2714 275.488 89.5744C275.746 89.8773 275.891 90.261 275.897 90.6594C275.903 91.0577 275.77 91.4456 275.52 91.7561C275.271 92.0666 274.92 92.2802 274.53 92.3601Z" fill="#CCCC1F"/>
</svg>
